<?xml version="1.0" encoding="utf-8"?>
<!-- Svg Vector Icons : http://www.onlinewebfonts.com/icon -->
<!DOCTYPE svg PUBLIC "-//W3C//DTD SVG 1.1//EN" "http://www.w3.org/Graphics/SVG/1.1/DTD/svg11.dtd">
<svg version="1.1" xmlns="http://www.w3.org/2000/svg" xmlns:xlink="http://www.w3.org/1999/xlink" x="0px" y="0px" viewBox="0 0 1000 1000" enable-background="new 0 0 1000 1000" xml:space="preserve">
<metadata> Svg Vector Icons : http://www.onlinewebfonts.com/icon </metadata>
<g><g transform="translate(0.000000,512.000000) scale(0.100000,-0.100000)"><path d="M1694.9,5008.8c-257.5-48-532.3-163.3-768.6-322.8C776.4,4584.1,542,4349.7,438.2,4194c-115.3-167.2-240.2-440-294-636L100,3394.6V118.4v-3276.3l44.2-163.3c53.8-194.1,178.7-467,294-636C543.9-4114.8,776.4-4347.3,934-4453c169.1-115.3,442-240.2,636-294l163.3-44.2H5000h3266.7l163.3,44.2c194.1,53.8,466.9,178.7,636,294c157.6,105.7,390.1,338.2,495.8,495.8c115.3,169.1,240.2,442,294,636l44.2,163.3V118.4v3276.3l-44.2,163.3c-194.1,707.1-703.3,1216.4-1425.8,1427.7l-144.1,40.4l-3228.2,3.8C2473.1,5033.7,1802.5,5029.9,1694.9,5008.8z M4043.1,3990.3c328.6-80.7,616.8-282.5,737.9-518.8c36.5-69.2,71.1-124.9,76.9-124.9c7.7,0,23.1,26.9,38.4,59.6c78.8,194.1,292.1,392,543.8,507.3c217.1,101.8,355.5,130.7,616.8,130.7c409.3,0,662.9-101.8,933.9-370.9c257.5-257.5,370.9-511.1,368.9-837.8c-1.9-297.8-98-564.9-278.6-774.4c-96.1-111.5-286.3-265.2-570.7-463.1c-142.2-98-564.9-401.6-939.6-676.4c-376.6-274.8-693.7-503.4-705.2-509.2c-13.5-3.8-386.2,259.4-828.2,584.2c-442,326.7-903.1,661-1024.2,745.6c-280.6,196-417,330.5-505.4,499.6c-98,190.2-136.4,349.7-136.4,566.9c0,292.1,76.9,515,261.3,759C2940.1,3975,3462.7,4130.6,4043.1,3990.3z M2540.4,1988.1c63.4-50,257.5-211.4,430.4-359.3l315.1-270.9l-309.4-5.8l-311.3-3.8V800.5V252.9l2157.9,3.8l2156,5.8l5.8,543.8l3.8,541.9h-317.1c-232.5,0-315.1,5.8-305.5,21.1c7.7,11.5,221,176.8,474.6,365.1l463.1,344h207.5H7719V-842.4v-2920.8H4817.5H1915.9v2920.8v2920.8h255.6h253.7L2540.4,1988.1z"/><path d="M5136.4,2929.6c-30.7-92.2-124.9-370.9-209.4-616.8c-124.9-365.1-157.6-443.9-176.8-422.7c-13.5,13.4-105.7,199.8-203.7,415c-98,213.3-184.5,388.2-192.2,388.2c-13.4,0-74.9-146-113.4-274.8c-38.4-124.9-50-128.8-347.8-128.8h-267.1v-86.5v-86.5l349.7,3.8l349.7,5.8l25,48c23.1,44.2,28.8,34.6,151.8-221c69.2-148,161.4-342,201.8-430.4c51.9-111.5,82.6-155.7,96.1-142.2c21.1,21.1,261.3,703.3,336.3,955c71.1,238.3,78.8,238.3,167.2-1.9c42.3-113.4,84.6-219.1,94.2-230.6c15.4-19.2,109.5-25,353.6-25h334.4v86.5v86.5h-267.1c-190.2,0-270.9,7.7-284.4,25c-11.5,11.5-82.6,190.2-161.4,395.8c-76.9,203.7-149.9,384.3-161.4,399.7C5196,3093,5178.7,3060.3,5136.4,2929.6z"/><path d="M2815.2-127.6l-149.9-5.8v-353.6v-355.5h384.3h384.3v361.2v359.4h-234.4C3068.8-121.8,2895.9-123.8,2815.2-127.6z"/><path d="M3977.7-127.6l-140.3-5.8v-353.6v-355.5h393.9h393.9v361.2v359.4h-253.6C4231.4-121.8,4052.7-123.8,3977.7-127.6z"/><path d="M5149.9-127.6l-121.1-5.8v-353.6v-355.5h384.3h384.3v361.2v359.4h-263.3C5388.2-121.8,5215.2-123.8,5149.9-127.6z"/><path d="M6312.4-127.6l-111.4-5.8v-353.6v-355.5h393.9h393.9v355.5v355.5l-61.5,1.9C6610.3-123.8,6404.7-121.8,6312.4-127.6z"/><path d="M2665.3-1591.8v-365.1h384.3h384.3v365.1v365.1h-384.3h-384.3V-1591.8z"/><path d="M3850.9-1240.2c-7.7-5.7-13.5-171-13.5-365.1v-351.6h393.9h393.9v365.1v365.1h-380.5C4035.4-1226.7,3856.7-1232.5,3850.9-1240.2z"/><path d="M5028.8-1591.8v-365.1h384.3h384.3v365.1v365.1h-384.3h-384.3V-1591.8z"/><path d="M6214.4-1238.3c-7.7-7.7-13.5-422.7-13.5-924.3v-908.9h393.9h393.9l-3.8,918.5l-5.8,916.6l-376.6,5.7C6397-1228.6,6222.1-1232.5,6214.4-1238.3z"/><path d="M2665.3-2706.3v-365.1h384.3h384.3v365.1v365.1h-384.3h-384.3V-2706.3z"/><path d="M3837.5-2706.3v-365.1h393.9h393.9v365.1v365.1h-393.9h-393.9V-2706.3z"/><path d="M5028.8-2706.3v-365.1h384.3h384.3v365.1v365.1h-384.3h-384.3V-2706.3z"/></g></g>
</svg>