<svg xmlns="http://www.w3.org/2000/svg" xmlns:xlink="http://www.w3.org/1999/xlink" version="1.1" width="256" height="256" viewBox="0 0 256 256" xml:space="preserve">

<defs>
</defs>
<g style="stroke: none; stroke-width: 0; stroke-dasharray: none; stroke-linecap: butt; stroke-linejoin: miter; stroke-miterlimit: 10; fill: none; fill-rule: nonzero; opacity: 1;" transform="translate(1.4065934065934016 1.4065934065934016) scale(2.81 2.81)" >
	<path d="M 58.769 13.769 H 21.63 c -5.749 0 -10.41 4.661 -10.41 10.41 c 0 5.75 4.661 10.41 10.41 10.41 h 6.26 c 5.749 0 10.41 4.661 10.41 10.41 c 0 5.75 -4.661 10.41 -10.41 10.41 H 10.41 C 4.661 55.41 0 60.071 0 65.821 c 0 5.749 4.661 10.41 10.41 10.41 h 48.359 v 0 C 76.017 76.231 90 62.248 90 45 S 76.017 13.769 58.769 13.769 z M 59.765 66.943 c -6.883 0 -13.237 -3.155 -17.436 -8.655 c -0.67 -0.879 -0.501 -2.134 0.376 -2.804 c 0.877 -0.671 2.133 -0.502 2.803 0.376 c 3.435 4.502 8.631 7.083 14.256 7.083 c 9.894 0 17.943 -8.05 17.943 -17.943 c 0 -9.894 -8.05 -17.943 -17.943 -17.943 c -5.625 0 -10.821 2.582 -14.256 7.082 c -0.67 0.879 -1.925 1.046 -2.803 0.376 c -0.878 -0.67 -1.046 -1.925 -0.376 -2.803 c 4.199 -5.5 10.553 -8.655 17.436 -8.655 c 12.1 0 21.943 9.844 21.943 21.943 S 71.864 66.943 59.765 66.943 z M 68.927 49.719 c 0.86 0.692 0.997 1.951 0.304 2.812 c -0.395 0.491 -0.975 0.746 -1.559 0.746 c -0.44 0 -0.884 -0.145 -1.253 -0.442 l -7.908 -6.367 c -0.472 -0.38 -0.746 -0.952 -0.746 -1.558 V 33.077 c 0 -1.104 0.896 -2 2 -2 s 2 0.896 2 2 v 10.875 L 68.927 49.719 z" style="stroke: none; stroke-width: 1; stroke-dasharray: none; stroke-linecap: butt; stroke-linejoin: miter; stroke-miterlimit: 10; fill: rgb(0,0,0); fill-rule: nonzero; opacity: 1;" transform=" matrix(1 0 0 1 0 0) " stroke-linecap="round" />
</g>
</svg>