<svg xmlns="http://www.w3.org/2000/svg" xmlns:xlink="http://www.w3.org/1999/xlink" version="1.1" width="256" height="256" viewBox="0 0 256 256" xml:space="preserve">

<defs>
</defs>
<g style="stroke: none; stroke-width: 0; stroke-dasharray: none; stroke-linecap: butt; stroke-linejoin: miter; stroke-miterlimit: 10; fill: none; fill-rule: nonzero; opacity: 1;" transform="translate(1.4065934065934016 1.4065934065934016) scale(2.81 2.81)" >
	<polygon points="60.7,38.96 53.27,51.73 45,35.91 39.58,25.55 26.48,39.99 0,39.99 0,45.99 29.14,45.99 38.25,35.95 45,48.85 52.99,64.14 64.15,44.96 90,44.96 90,38.96 " style="stroke: none; stroke-width: 1; stroke-dasharray: none; stroke-linecap: butt; stroke-linejoin: miter; stroke-miterlimit: 10; fill: rgb(0,0,0); fill-rule: nonzero; opacity: 1;" transform="  matrix(1 0 0 1 0 0) "/>
	<path d="M 6.776 36.995 c -1.897 -6.618 -0.251 -14.047 4.953 -19.25 c 3.694 -3.694 8.606 -5.729 13.831 -5.729 c 5.225 0 10.136 2.035 13.831 5.729 l 1.367 1.367 L 45 23.354 l 4.242 -4.242 l 1.367 -1.367 c 3.694 -3.694 8.606 -5.729 13.831 -5.729 c 5.225 0 10.136 2.035 13.831 5.729 c 4.935 4.935 6.656 11.869 5.204 18.217 h 6.14 c 1.372 -7.914 -0.991 -16.349 -7.102 -22.46 C 77.523 8.511 70.982 6.016 64.44 6.016 c -6.541 0 -13.083 2.495 -18.073 7.486 L 45 14.869 l 0 0 l 0 0 l -1.367 -1.367 C 38.642 8.511 32.101 6.016 25.56 6.016 c -6.541 0 -13.083 2.495 -18.073 7.486 C 1.108 19.88 -1.187 28.788 0.585 36.995 H 6.776 z" style="stroke: none; stroke-width: 1; stroke-dasharray: none; stroke-linecap: butt; stroke-linejoin: miter; stroke-miterlimit: 10; fill: rgb(0,0,0); fill-rule: nonzero; opacity: 1;" transform=" matrix(1 0 0 1 0 0) " stroke-linecap="round" />
	<path d="M 75.715 47.962 L 58.831 64.846 L 45 78.677 L 31.169 64.846 L 15.317 48.994 H 6.864 c 0.205 0.22 0.408 0.441 0.622 0.655 l 19.44 19.44 c 0 0 0 0 0 0 L 45 87.163 l 18.073 -18.073 c 0 0 0 0 0 0 l 19.44 -19.44 c 0.544 -0.544 1.052 -1.109 1.536 -1.687 H 75.715 z" style="stroke: none; stroke-width: 1; stroke-dasharray: none; stroke-linecap: butt; stroke-linejoin: miter; stroke-miterlimit: 10; fill: rgb(0,0,0); fill-rule: nonzero; opacity: 1;" transform=" matrix(1 0 0 1 0 0) " stroke-linecap="round" />
</g>
</svg>