<svg xmlns="http://www.w3.org/2000/svg" xmlns:xlink="http://www.w3.org/1999/xlink" version="1.1" width="256" height="256" viewBox="0 0 256 256" xml:space="preserve">

<defs>
</defs>
<g style="stroke: none; stroke-width: 0; stroke-dasharray: none; stroke-linecap: butt; stroke-linejoin: miter; stroke-miterlimit: 10; fill: none; fill-rule: nonzero; opacity: 1;" transform="translate(1.4065934065934016 1.4065934065934016) scale(2.81 2.81)" >
	<path d="M 45 83.354 c -0.256 0 -0.512 -0.098 -0.707 -0.293 L 18.385 57.153 c -0.391 -0.391 -0.391 -1.023 0 -1.414 s 1.023 -0.391 1.414 0 L 45 80.94 l 25.201 -25.201 c 0.391 -0.391 1.023 -0.391 1.414 0 s 0.391 1.023 0 1.414 L 45.707 83.062 C 45.512 83.257 45.256 83.354 45 83.354 z" style="stroke: none; stroke-width: 1; stroke-dasharray: none; stroke-linecap: butt; stroke-linejoin: miter; stroke-miterlimit: 10; fill: rgb(0,0,0); fill-rule: nonzero; opacity: 1;" transform=" matrix(1 0 0 1 0 0) " stroke-linecap="round" />
	<path d="M 41.188 62.399 c -0.014 0 -0.028 0 -0.042 -0.001 c -0.394 -0.017 -0.741 -0.263 -0.887 -0.629 L 29.474 34.661 l -7.199 15.365 c -0.165 0.352 -0.518 0.576 -0.906 0.576 H 1 c -0.552 0 -1 -0.447 -1 -1 s 0.448 -1 1 -1 h 19.734 l 7.909 -16.883 c 0.169 -0.361 0.534 -0.578 0.936 -0.575 c 0.398 0.012 0.752 0.259 0.899 0.63 l 10.814 27.181 l 10.169 -20.338 c 0.17 -0.339 0.516 -0.553 0.895 -0.553 c 0.001 0 0.002 0 0.003 0 c 0.38 0.001 0.727 0.217 0.895 0.558 l 4.915 9.98 H 89 c 0.553 0 1 0.447 1 1 s -0.447 1 -1 1 H 57.546 c -0.381 0 -0.729 -0.217 -0.897 -0.559 l -4.3 -8.73 L 42.083 61.847 C 41.913 62.187 41.565 62.399 41.188 62.399 z" style="stroke: none; stroke-width: 1; stroke-dasharray: none; stroke-linecap: butt; stroke-linejoin: miter; stroke-miterlimit: 10; fill: rgb(0,0,0); fill-rule: nonzero; opacity: 1;" transform=" matrix(1 0 0 1 0 0) " stroke-linecap="round" />
	<path d="M 85.225 42.576 c -0.194 0 -0.391 -0.056 -0.563 -0.174 c -0.456 -0.312 -0.574 -0.934 -0.263 -1.39 c 5.602 -8.208 4.564 -19.269 -2.467 -26.3 C 78.02 10.8 72.817 8.645 67.285 8.645 c -5.533 0 -10.735 2.155 -14.648 6.067 l -6.93 6.93 c -0.375 0.375 -1.039 0.375 -1.414 0 l -6.93 -6.93 C 33.45 10.8 28.249 8.645 22.715 8.645 c -5.533 0 -10.735 2.155 -14.647 6.067 c -7.031 7.031 -8.068 18.091 -2.467 26.3 c 0.311 0.456 0.194 1.078 -0.263 1.39 c -0.457 0.311 -1.078 0.193 -1.39 -0.263 c -6.142 -9.001 -5.004 -21.131 2.706 -28.841 c 4.29 -4.291 9.994 -6.653 16.062 -6.653 c 6.068 0 11.772 2.363 16.062 6.653 L 45 19.521 l 6.223 -6.223 c 4.29 -4.291 9.995 -6.653 16.063 -6.653 s 11.771 2.363 16.062 6.653 c 7.71 7.71 8.848 19.839 2.705 28.841 C 85.858 42.423 85.544 42.576 85.225 42.576 z" style="stroke: none; stroke-width: 1; stroke-dasharray: none; stroke-linecap: butt; stroke-linejoin: miter; stroke-miterlimit: 10; fill: rgb(0,0,0); fill-rule: nonzero; opacity: 1;" transform=" matrix(1 0 0 1 0 0) " stroke-linecap="round" />
</g>
</svg>