<svg class="svg-icon" style="width: 1em; height: 1em;vertical-align: middle;fill: currentColor;overflow: hidden;" viewBox="0 0 1024 1024" version="1.1" xmlns="http://www.w3.org/2000/svg"><path d="M835.14 188.86C748.82 102.56 634.06 55.02 512 55.02S275.18 102.56 188.86 188.86C102.56 275.18 55.02 389.94 55.02 512s47.54 236.82 133.84 323.14c86.32 86.3 201.08 133.84 323.14 133.84s236.82-47.54 323.14-133.84c86.3-86.32 133.84-201.08 133.84-323.14s-47.54-236.82-133.84-323.14zM948.86 502h-77.58c-0.98-36.06-7.32-70.82-18.22-103.5l72.92-26.54c13.88 40.98 21.84 84.68 22.88 130.04z m-29.76-148.82l-72.9 26.54c-13.08-32.96-30.94-63.54-52.66-90.9l59.38-49.84c27.48 34.24 49.92 72.68 66.18 114.2zM831.02 628c-0.02 0.02-0.04 0.06-0.06 0.1-0.02 0.04-0.02 0.08-0.04 0.12-47.54 130.1-172.56 223.22-318.92 223.22S240.62 758.32 193.06 628.22c0-0.04 0-0.08-0.02-0.12-0.02-0.04-0.04-0.08-0.06-0.1-13.2-36.22-20.42-75.28-20.42-116s7.22-79.76 20.42-115.96c0.02-0.06 0.04-0.08 0.06-0.14 0.02-0.04 0.02-0.08 0.02-0.12 41-112.14 139.56-196.8 259.72-218.04 0.1 0 0.18 0 0.28-0.02 0.06 0 0.12-0.04 0.18-0.04 19.1-3.36 38.72-5.12 58.76-5.12s39.66 1.76 58.76 5.12c0.06 0 0.12 0.04 0.18 0.04 0.1 0.02 0.18 0.02 0.28 0.02 120.16 21.24 218.72 105.9 259.7 218.04 0.02 0.04 0.02 0.08 0.04 0.12 0.02 0.06 0.04 0.08 0.06 0.14 13.2 36.2 20.42 75.26 20.42 115.96 0 40.72-7.22 79.78-20.42 116z m40.28 25.42c-57.8 146.72-200.9 244.6-359.3 244.6s-301.5-97.88-359.3-244.6l25.1-9.14c52.8 132.92 182.7 227.16 334.2 227.16s281.4-94.24 334.2-227.16l25.1 9.14z m-31.24-429.74l-59.4 49.84a362.134 362.134 0 0 0-80.4-67.58l38.78-67.18a440.458 440.458 0 0 1 101.02 84.92z m-242.34-140.2c44.06 8.8 85.78 24.26 124 45.26l-38.76 67.16a356.834 356.834 0 0 0-98.72-36.04l13.48-76.38zM512 75.02c22.44 0 44.48 1.7 66.02 4.98l-13.48 76.42c-17.16-2.52-34.7-3.86-52.54-3.86s-35.38 1.34-52.54 3.86L445.98 80A438.28 438.28 0 0 1 512 75.02z m-85.72 8.46l13.48 76.38c-35.02 7.18-68.2 19.46-98.72 36.04l-38.76-67.16a433.922 433.922 0 0 1 124-45.26z m-141.32 55.28l38.78 67.18c-30 18.52-57.08 41.34-80.4 67.58l-59.4-49.84a440.458 440.458 0 0 1 101.02-84.92z m-113.88 100.22l59.38 49.84c-21.72 27.36-39.58 57.94-52.66 90.9l-72.9-26.54c16.26-41.52 38.7-79.96 66.18-114.2z m-73.04 132.98l72.9 26.54A357.388 357.388 0 0 0 152.72 502H75.14c1.04-45.36 9-89.06 22.9-130.04zM75.14 522h77.58c0.98 36.06 7.32 70.82 18.22 103.5l-72.9 26.54c-13.9-40.98-21.86-84.68-22.9-130.04zM512 948.98c-184.96 0-343.42-115.5-407.1-278.16l29-10.56c28.8 73.5 78 136.5 142.74 182.64 68.98 49.16 150.38 75.12 235.36 75.12s166.38-25.96 235.36-75.12c64.74-46.14 113.92-109.14 142.74-182.64l29 10.56C855.42 833.48 696.96 948.98 512 948.98z m413.96-296.94l-72.9-26.54c10.9-32.68 17.24-67.44 18.22-103.5h77.58c-1.04 45.36-9 89.06-22.9 130.04z" fill="#23130D" /><path d="M871.28 522c-0.98 36.06-7.32 70.82-18.22 103.5l72.9 26.54c13.9-40.98 21.86-84.68 22.9-130.04h-77.58z m48.96 71.98c-0.58 0-1.16-0.04-1.74-0.14l-32.16-5.68a9.986 9.986 0 0 1-8.1-11.58 10.014 10.014 0 0 1 11.58-8.12l32.14 5.68a10 10 0 0 1 8.12 11.58 10 10 0 0 1-9.84 8.26zM925.98 371.96l-72.92 26.54c10.9 32.68 17.24 67.44 18.22 103.5h77.58c-1.04-45.36-9-89.06-22.88-130.04z m-4.02 77.9l-32.14 5.68c-0.58 0.1-1.18 0.14-1.74 0.14a10 10 0 0 1-1.74-19.84l32.16-5.68a10.026 10.026 0 0 1 11.58 8.12 10 10 0 0 1-8.12 11.58zM852.92 238.98l-59.38 49.84c21.72 27.36 39.58 57.94 52.66 90.9l72.9-26.54c-16.26-41.52-38.7-79.96-66.18-114.2zM876 313.4l-28.28 16.32c-1.58 0.9-3.3 1.34-4.98 1.34-3.46 0-6.82-1.8-8.68-5a10.004 10.004 0 0 1 3.66-13.66l28.28-16.32c4.78-2.76 10.9-1.12 13.66 3.66s1.12 10.9-3.66 13.66zM739.04 138.76l-38.78 67.18c30 18.52 57.08 41.34 80.4 67.58l59.4-49.84a440.458 440.458 0 0 0-101.02-84.92z m47.08 62.12l-20.98 25a10 10 0 0 1-7.68 3.58 9.94 9.94 0 0 1-6.42-2.34c-4.22-3.56-4.78-9.86-1.22-14.08l20.98-25.02a9.988 9.988 0 0 1 14.08-1.22 10.01 10.01 0 0 1 1.24 14.08z" fill="#EC7063" /><path d="M597.72 83.48l-13.48 76.38c35.02 7.18 68.2 19.46 98.72 36.04l38.76-67.16a433.922 433.922 0 0 0-124-45.26z m65.46 42.42L652 156.56a9.968 9.968 0 0 1-9.38 6.58c-1.14 0-2.3-0.18-3.42-0.6a9.98 9.98 0 0 1-5.98-12.82l11.16-30.66c1.9-5.2 7.64-7.88 12.82-5.98 5.18 1.88 7.86 7.62 5.98 12.82zM512 75.02c-22.44 0-44.48 1.7-66.02 4.98l13.48 76.42c17.16-2.52 34.7-3.86 52.54-3.86s35.38 1.34 52.54 3.86L578.02 80A438.28 438.28 0 0 0 512 75.02z m10 55.1c0 5.52-4.48 10-10 10s-10-4.48-10-10V97.48c0-5.52 4.48-10 10-10s10 4.48 10 10v32.64zM426.28 83.48a433.922 433.922 0 0 0-124 45.26l38.76 67.16a356.834 356.834 0 0 1 98.72-36.04l-13.48-76.38zM384.8 162.54c-1.12 0.42-2.28 0.6-3.42 0.6-4.08 0-7.92-2.52-9.38-6.58l-11.18-30.66c-1.88-5.2 0.8-10.94 5.98-12.82 5.18-1.9 10.92 0.78 12.82 5.98l11.16 30.66a9.98 9.98 0 0 1-5.98 12.82zM284.96 138.76a440.458 440.458 0 0 0-101.02 84.92l59.4 49.84a362.134 362.134 0 0 1 80.4-67.58l-38.78-67.18z m-12 88.36a9.94 9.94 0 0 1-6.42 2.34 10 10 0 0 1-7.68-3.58l-20.98-25a9.992 9.992 0 0 1 1.24-14.08 9.988 9.988 0 0 1 14.08 1.22l20.98 25.02c3.56 4.22 3 10.52-1.22 14.08z" fill="#F9C139" /><path d="M171.08 238.98c-27.48 34.24-49.92 72.68-66.18 114.2l72.9 26.54c13.08-32.96 30.94-63.54 52.66-90.9l-59.38-49.84z m10.18 92.08c-1.68 0-3.4-0.44-4.98-1.34L148 313.4a10.004 10.004 0 0 1-3.66-13.66 10.008 10.008 0 0 1 13.66-3.66l28.28 16.32a10.004 10.004 0 0 1 3.66 13.66c-1.86 3.2-5.22 5-8.68 5zM98.04 371.96c-13.9 40.98-21.86 84.68-22.9 130.04h77.58c0.98-36.06 7.32-70.82 18.22-103.5l-72.9-26.54z m47.72 75.46a10 10 0 0 1-9.84 8.26c-0.56 0-1.16-0.04-1.74-0.14l-32.14-5.68a10 10 0 0 1-8.12-11.58c0.96-5.44 6.16-9.06 11.6-8.12l32.14 5.68c5.44 0.96 9.06 6.14 8.1 11.58zM152.72 522H75.14c1.04 45.36 9 89.06 22.9 130.04l72.9-26.54A357.388 357.388 0 0 1 152.72 522z m-15.06 66.16l-32.16 5.68c-0.58 0.1-1.16 0.14-1.74 0.14a10 10 0 0 1-9.84-8.26 10 10 0 0 1 8.12-11.58l32.14-5.68a10.014 10.014 0 0 1 11.58 8.12 9.986 9.986 0 0 1-8.1 11.58z" fill="#72AF5F" /><path d="M871.3 653.42c-57.8 146.72-200.9 244.6-359.3 244.6s-301.5-97.88-359.3-244.6l25.1-9.14c52.8 132.92 182.7 227.16 334.2 227.16s281.4-94.24 334.2-227.16l25.1 9.14z" fill="#636368" /><path d="M919.1 670.82C855.42 833.48 696.96 948.98 512 948.98S168.58 833.48 104.9 670.82l29-10.56c28.8 73.5 78 136.5 142.74 182.64 68.98 49.16 150.38 75.12 235.36 75.12s166.38-25.96 235.36-75.12c64.74-46.14 113.92-109.14 142.74-182.64l29 10.56z" fill="#636368" /><path d="M919.1 670.82C855.42 833.48 696.96 948.98 512 948.98S168.58 833.48 104.9 670.82l29-10.56c28.8 73.5 78 136.5 142.74 182.64 68.98 49.16 150.38 75.12 235.36 75.12s166.38-25.96 235.36-75.12c64.74-46.14 113.92-109.14 142.74-182.64l29 10.56z" fill="#23130D" opacity=".2" /><path d="M831.02 396.04c-0.02-0.06-0.04-0.08-0.06-0.14-0.02-0.04-0.02-0.08-0.04-0.12-40.98-112.14-139.54-196.8-259.7-218.04-0.1 0-0.18 0-0.28-0.02-0.06 0-0.12-0.04-0.18-0.04-19.1-3.36-38.72-5.12-58.76-5.12s-39.66 1.76-58.76 5.12c-0.06 0-0.12 0.04-0.18 0.04-0.1 0.02-0.18 0.02-0.28 0.02-120.16 21.24-218.72 105.9-259.72 218.04 0 0.04 0 0.08-0.02 0.12-0.02 0.06-0.04 0.08-0.06 0.14-13.2 36.2-20.42 75.24-20.42 115.96s7.22 79.78 20.42 116c0.02 0.02 0.04 0.06 0.06 0.1 0.02 0.04 0.02 0.08 0.02 0.12 47.56 130.1 172.58 223.22 318.94 223.22s271.38-93.12 318.92-223.22c0.02-0.04 0.02-0.08 0.04-0.12 0.02-0.04 0.04-0.08 0.06-0.1 13.2-36.22 20.42-75.28 20.42-116 0-40.7-7.22-79.76-20.42-115.96z m-569.96 80.66c-0.6 0-1.2-0.04-1.82-0.16-5.42-0.98-9.02-6.2-8.04-11.64 22.58-123.54 130.28-213.22 256.08-213.22 36.14 0 71.1 7.26 103.94 21.58a10.028 10.028 0 0 1 5.16 13.18c-2.22 5.06-8.1 7.38-13.16 5.16-30.3-13.22-62.58-19.92-95.94-19.92-116.14 0-215.56 82.78-236.4 196.82a9.99 9.99 0 0 1-9.82 8.2z m246.22-143.38c-82.48 0-153.82 55.82-173.48 135.78a10 10 0 0 1-9.7 7.6c-0.8 0-1.6-0.08-2.4-0.28a10.004 10.004 0 0 1-7.32-12.1c21.86-88.92 101.2-151 192.9-151 19.06 0 37.94 2.68 56.08 8 5.3 1.56 8.34 7.12 6.78 12.42a9.986 9.986 0 0 1-12.4 6.78 179.442 179.442 0 0 0-50.46-7.2z m7.64 55.26a9.988 9.988 0 0 1-9.8 10.18c-45.86 0.86-86.36 28.98-103.22 71.62a9.988 9.988 0 0 1-9.3 6.32c-1.22 0-2.46-0.22-3.68-0.7a9.972 9.972 0 0 1-5.62-12.96c19.82-50.18 67.5-83.26 121.44-84.28h0.2a10 10 0 0 1 9.98 9.82zM512 754.68c-133.82 0-242.68-108.86-242.68-242.68 0-5.52 4.48-10 10-10h174.44a57.05 57.05 0 0 1 14.38-24.92l0.18-0.2c0.02 0 0.02-0.02 0.04-0.02l208-221.14c0.1-0.1 0.22-0.18 0.32-0.28 0.26-0.26 0.54-0.5 0.82-0.72 0.24-0.18 0.5-0.38 0.74-0.54 0.28-0.18 0.58-0.34 0.86-0.48 0.3-0.16 0.58-0.28 0.88-0.4 0.3-0.12 0.6-0.22 0.9-0.3 0.32-0.1 0.62-0.18 0.94-0.24 0.32-0.06 0.64-0.08 0.96-0.12 0.32-0.02 0.62-0.04 0.94-0.04 0.32 0 0.64 0.02 0.98 0.06 0.32 0.04 0.64 0.08 0.96 0.14 0.3 0.06 0.6 0.14 0.9 0.24 0.34 0.1 0.68 0.22 1 0.36 0.14 0.06 0.28 0.08 0.42 0.16 0.14 0.06 0.26 0.16 0.42 0.24 0.3 0.18 0.58 0.36 0.88 0.54 0.28 0.2 0.56 0.42 0.84 0.64 0.12 0.12 0.26 0.2 0.38 0.3 0.1 0.1 0.18 0.22 0.28 0.32 0.26 0.26 0.48 0.54 0.7 0.82 0.2 0.24 0.38 0.5 0.56 0.76 0.16 0.28 0.32 0.56 0.46 0.84 0.16 0.3 0.3 0.58 0.42 0.9 0.12 0.28 0.2 0.58 0.3 0.88 0.08 0.32 0.16 0.62 0.22 0.94 0.06 0.32 0.1 0.64 0.12 0.96 0.04 0.32 0.06 0.62 0.06 0.94 0 0.32-0.04 0.64-0.06 0.98-0.04 0.32-0.08 0.64-0.16 0.96-0.06 0.3-0.14 0.6-0.22 0.9-0.12 0.34-0.24 0.68-0.38 1-0.04 0.14-0.08 0.28-0.14 0.42L579.82 502h164.86c5.52 0 10 4.48 10 10 0 133.82-108.86 242.68-242.68 242.68z" fill="#E1E1E5" /><path d="M831.02 396.04c-0.02-0.06-0.04-0.08-0.06-0.14-0.02-0.04-0.02-0.08-0.04-0.12-40.98-112.14-139.54-196.8-259.7-218.04-0.1 0-0.18 0-0.28-0.02-0.06 0-0.12-0.04-0.18-0.04-19.1-3.36-38.72-5.12-58.76-5.12s-39.66 1.76-58.76 5.12c-0.06 0-0.12 0.04-0.18 0.04-0.1 0.02-0.18 0.02-0.28 0.02-120.16 21.24-218.72 105.9-259.72 218.04 0 0.04 0 0.08-0.02 0.12-0.02 0.06-0.04 0.08-0.06 0.14-13.2 36.2-20.42 75.24-20.42 115.96s7.22 79.78 20.42 116c0.02 0.02 0.04 0.06 0.06 0.1 0.02 0.04 0.02 0.08 0.02 0.12 47.56 130.1 172.58 223.22 318.94 223.22s271.38-93.12 318.92-223.22c0.02-0.04 0.02-0.08 0.04-0.12 0.02-0.04 0.04-0.08 0.06-0.1 13.2-36.22 20.42-75.28 20.42-116 0-40.7-7.22-79.76-20.42-115.96z m-9.2 228.02c-0.02 0.04-0.04 0.1-0.06 0.14l-0.04 0.06-0.04 0.12c-0.08 0.2-0.16 0.4-0.22 0.6-22.98 62.74-64.02 116.5-118.74 155.5-55.98 39.88-121.92 60.96-190.72 60.96s-134.74-21.08-190.72-60.96c-54.6-38.92-95.62-92.54-118.62-155.12-0.12-0.44-0.28-0.88-0.48-1.3-13.02-35.92-19.62-73.62-19.62-112.06s6.6-76.14 19.64-112.06l0.1-0.2 0.16-0.48c0.08-0.2 0.14-0.4 0.2-0.6C243 288.94 339.22 208.16 454 187.68h0.12l0.22-0.04c0.08 0 0.14-0.02 0.2-0.02 0.24-0.04 0.48-0.08 0.72-0.14A330.36 330.36 0 0 1 512 182.56c18.88 0 37.86 1.64 56.4 4.86l0.92 0.3h0.9c114.74 20.56 210.88 101.34 251.16 211.06l0.14 0.62 0.28 0.54c13.04 35.92 19.64 73.62 19.64 112.06s-6.6 76.14-19.62 112.06z" opacity=".2" /><path d="M522 97.48v32.64c0 5.52-4.48 10-10 10s-10-4.48-10-10V97.48c0-5.52 4.48-10 10-10s10 4.48 10 10zM384.8 162.54c-1.12 0.42-2.28 0.6-3.42 0.6-4.08 0-7.92-2.52-9.38-6.58l-11.18-30.66c-1.88-5.2 0.8-10.94 5.98-12.82 5.18-1.9 10.92 0.78 12.82 5.98l11.16 30.66a9.98 9.98 0 0 1-5.98 12.82zM272.96 227.12a9.94 9.94 0 0 1-6.42 2.34 10 10 0 0 1-7.68-3.58l-20.98-25a9.992 9.992 0 0 1 1.24-14.08 9.988 9.988 0 0 1 14.08 1.22l20.98 25.02c3.56 4.22 3 10.52-1.22 14.08zM189.94 326.06c-1.86 3.2-5.22 5-8.68 5-1.68 0-3.4-0.44-4.98-1.34L148 313.4a10.004 10.004 0 0 1-3.66-13.66 10.008 10.008 0 0 1 13.66-3.66l28.28 16.32a10.004 10.004 0 0 1 3.66 13.66zM145.76 447.42a10 10 0 0 1-9.84 8.26c-0.56 0-1.16-0.04-1.74-0.14l-32.14-5.68a10 10 0 0 1-8.12-11.58c0.96-5.44 6.16-9.06 11.6-8.12l32.14 5.68c5.44 0.96 9.06 6.14 8.1 11.58zM137.66 588.16l-32.16 5.68c-0.58 0.1-1.16 0.14-1.74 0.14a10 10 0 0 1-9.84-8.26 10 10 0 0 1 8.12-11.58l32.14-5.68a10.014 10.014 0 0 1 11.58 8.12 9.986 9.986 0 0 1-8.1 11.58zM930.08 585.72a10 10 0 0 1-9.84 8.26c-0.58 0-1.16-0.04-1.74-0.14l-32.16-5.68a9.986 9.986 0 0 1-8.1-11.58 10.014 10.014 0 0 1 11.58-8.12l32.14 5.68a10 10 0 0 1 8.12 11.58zM921.96 449.86l-32.14 5.68c-0.58 0.1-1.18 0.14-1.74 0.14a10 10 0 0 1-1.74-19.84l32.16-5.68a10.026 10.026 0 0 1 11.58 8.12 10 10 0 0 1-8.12 11.58zM876 313.4l-28.28 16.32c-1.58 0.9-3.3 1.34-4.98 1.34-3.46 0-6.82-1.8-8.68-5a10.004 10.004 0 0 1 3.66-13.66l28.28-16.32c4.78-2.76 10.9-1.12 13.66 3.66s1.12 10.9-3.66 13.66zM786.12 200.88l-20.98 25a10 10 0 0 1-7.68 3.58 9.94 9.94 0 0 1-6.42-2.34c-4.22-3.56-4.78-9.86-1.22-14.08l20.98-25.02a9.988 9.988 0 0 1 14.08-1.22 10.01 10.01 0 0 1 1.24 14.08zM663.18 125.9L652 156.56a9.968 9.968 0 0 1-9.38 6.58c-1.14 0-2.3-0.18-3.42-0.6a9.98 9.98 0 0 1-5.98-12.82l11.16-30.66c1.9-5.2 7.64-7.88 12.82-5.98 5.18 1.88 7.86 7.62 5.98 12.82z" fill="#FFFFFF" /><path d="M744.68 502h-164.86l112.84-235.1c0.06-0.14 0.1-0.28 0.14-0.42 0.14-0.32 0.26-0.66 0.38-1 0.08-0.3 0.16-0.6 0.22-0.9 0.08-0.32 0.12-0.64 0.16-0.96 0.02-0.34 0.06-0.66 0.06-0.98 0-0.32-0.02-0.62-0.06-0.94-0.02-0.32-0.06-0.64-0.12-0.96-0.06-0.32-0.14-0.62-0.22-0.94-0.1-0.3-0.18-0.6-0.3-0.88-0.12-0.32-0.26-0.6-0.42-0.9-0.14-0.28-0.3-0.56-0.46-0.84-0.18-0.26-0.36-0.52-0.56-0.76-0.22-0.28-0.44-0.56-0.7-0.82-0.1-0.1-0.18-0.22-0.28-0.32-0.12-0.1-0.26-0.18-0.38-0.3-0.28-0.22-0.56-0.44-0.84-0.64-0.3-0.18-0.58-0.36-0.88-0.54-0.16-0.08-0.28-0.18-0.42-0.24-0.14-0.08-0.28-0.1-0.42-0.16-0.32-0.14-0.66-0.26-1-0.36-0.3-0.1-0.6-0.18-0.9-0.24-0.32-0.06-0.64-0.1-0.96-0.14-0.34-0.04-0.66-0.06-0.98-0.06-0.32 0-0.62 0.02-0.94 0.04-0.32 0.04-0.64 0.06-0.96 0.12-0.32 0.06-0.62 0.14-0.94 0.24-0.3 0.08-0.6 0.18-0.9 0.3-0.3 0.12-0.58 0.24-0.88 0.4-0.28 0.14-0.58 0.3-0.86 0.48-0.24 0.16-0.5 0.36-0.74 0.54-0.28 0.22-0.56 0.46-0.82 0.72-0.1 0.1-0.22 0.18-0.32 0.28l-208 221.14c-0.02 0-0.02 0.02-0.04 0.02l-0.18 0.2a57.05 57.05 0 0 0-14.38 24.92h-174.44c-5.52 0-10 4.48-10 10 0 133.82 108.86 242.68 242.68 242.68S754.68 645.82 754.68 512c0-5.52-4.48-10-10-10z m-266.42-5.88c1.22-1.8 2.64-3.5 4.18-5.06 0.04-0.04 0.08-0.08 0.12-0.14 0.02 0 0.04-0.02 0.06-0.04l164.06-174.42-103.62 215.88c-0.08 0.16-0.1 0.34-0.18 0.5-0.9 1.94-1.9 3.8-3.08 5.5-11.64 16.96-34.92 21.32-51.88 9.68-8.22-5.64-13.74-14.14-15.58-23.96-1.82-9.8 0.28-19.72 5.92-27.94zM512 734.68c-119.44 0-217.2-94.52-222.44-212.68h162.34c0.18 1.9 0.42 3.82 0.78 5.74 2.82 15.06 11.3 28.12 23.94 36.76a56.922 56.922 0 0 0 32.32 10.04c18.28 0 36.26-8.72 47.36-24.9 2.24-3.26 4.18-6.82 5.76-10.6 0.02-0.04 0.02-0.08 0.04-0.14l8.12-16.9h164.22c-5.24 118.16-103 212.68-222.44 212.68z" fill="#23130D" /><path d="M646.68 316.46l-103.62 215.88c-0.08 0.16-0.1 0.34-0.18 0.5-0.9 1.94-1.9 3.8-3.08 5.5-11.64 16.96-34.92 21.32-51.88 9.68-8.22-5.64-13.74-14.14-15.58-23.96-1.82-9.8 0.28-19.72 5.92-27.94 1.22-1.8 2.64-3.5 4.18-5.06 0.04-0.04 0.08-0.08 0.12-0.14 0.02 0 0.04-0.02 0.06-0.04l164.06-174.42z" fill="#EC7063" /><path d="M646.68 316.46l-30.42 63.36-118.6 126.1c-0.02 0.02-0.04 0.04-0.06 0.04-0.04 0.06-0.08 0.1-0.12 0.14-1.54 1.56-2.96 3.26-4.18 5.06a37.086 37.086 0 0 0-5.92 27.94 37.08 37.08 0 0 0 3.88 10.96c-1.14-0.6-2.26-1.3-3.34-2.04-8.22-5.64-13.74-14.14-15.58-23.96-1.82-9.8 0.28-19.72 5.92-27.94 1.22-1.8 2.64-3.5 4.18-5.06 0.04-0.04 0.08-0.08 0.12-0.14 0.02 0 0.04-0.02 0.06-0.04l164.06-174.42z" fill="#23130D" opacity=".2" /><path d="M734.44 522c-5.24 118.16-103 212.68-222.44 212.68S294.8 640.16 289.56 522h162.34c0.18 1.9 0.42 3.82 0.78 5.74 2.82 15.06 11.3 28.12 23.94 36.76a56.922 56.922 0 0 0 32.32 10.04c18.28 0 36.26-8.72 47.36-24.9 2.24-3.26 4.18-6.82 5.76-10.6 0.02-0.04 0.02-0.08 0.04-0.14l8.12-16.9h164.22z" fill="#3594BF" /><path d="M734.44 522c-5.24 118.16-103 212.68-222.44 212.68S294.8 640.16 289.56 522h2.8c17.52 105.4 109.34 186.02 219.64 186.02S714.12 627.4 731.64 522h2.8z" fill="#23130D" opacity=".2" /><path d="M514.92 388.58a9.988 9.988 0 0 1-9.8 10.18c-45.86 0.86-86.36 28.98-103.22 71.62a9.988 9.988 0 0 1-9.3 6.32c-1.22 0-2.46-0.22-3.68-0.7a9.972 9.972 0 0 1-5.62-12.96c19.82-50.18 67.5-83.26 121.44-84.28h0.2a10 10 0 0 1 9.98 9.82z" fill="#FFFFFF" /><path d="M570.14 333.74a9.986 9.986 0 0 1-12.4 6.78 179.442 179.442 0 0 0-50.46-7.2c-82.48 0-153.82 55.82-173.48 135.78a10 10 0 0 1-9.7 7.6c-0.8 0-1.6-0.08-2.4-0.28a10.004 10.004 0 0 1-7.32-12.1c21.86-88.92 101.2-151 192.9-151 19.06 0 37.94 2.68 56.08 8 5.3 1.56 8.34 7.12 6.78 12.42z" fill="#FFFFFF" /><path d="M616.38 286.44c-2.22 5.06-8.1 7.38-13.16 5.16-30.3-13.22-62.58-19.92-95.94-19.92-116.14 0-215.56 82.78-236.4 196.82a9.99 9.99 0 0 1-9.82 8.2c-0.6 0-1.2-0.04-1.82-0.16-5.42-0.98-9.02-6.2-8.04-11.64 22.58-123.54 130.28-213.22 256.08-213.22 36.14 0 71.1 7.26 103.94 21.58a10.028 10.028 0 0 1 5.16 13.18z" fill="#FFFFFF" /></svg>