<svg class="svg-icon" style="width: 1em; height: 1em;vertical-align: middle;fill: currentColor;overflow: hidden;" viewBox="0 0 1024 1024" version="1.1" xmlns="http://www.w3.org/2000/svg"><path d="M344.746667 802.133333c6.826667-58.026667 51.2-109.226667 112.64-126.293333l-163.84-327.68c-3.413333-6.826667 0-17.066667 6.826666-23.893333 6.826667-3.413333 17.066667 0 23.893334 6.826666l167.253333 334.506667c6.826667 0 13.653333-3.413333 23.893333-3.413333 88.746667 0 160.426667 61.44 167.253334 136.533333h232.106666c58.026667-81.92 95.573333-180.906667 95.573334-290.133333 0-88.746667-23.893333-170.666667-64.853334-242.346667 0 3.413333-3.413333 6.826667-3.413333 10.24L887.466667 331.093333c-6.826667 10.24-13.653333 10.24-17.066667 10.24s-10.24 0-13.653333-3.413333c-6.826667-6.826667-6.826667-17.066667 0-23.893333l54.613333-54.613334c6.826667-6.826667 13.653333-6.826667 20.48-3.413333-85.333333-143.36-242.346667-238.933333-419.84-238.933333 10.24 0 17.066667 6.826667 17.066667 17.066666v136.533334c0 10.24-6.826667 17.066667-17.066667 17.066666s-17.066667-6.826667-17.066667-17.066666V34.133333c0-10.24 6.826667-17.066667 17.066667-17.066666C334.506667 17.066667 177.493333 112.64 92.16 252.586667c6.826667-3.413333 13.653333-3.413333 20.48 3.413333l54.613333 54.613333c3.413333 6.826667 3.413333 20.48 0 27.306667-3.413333 3.413333-10.24 3.413333-13.653333 3.413333s-10.24 0-13.653333-3.413333L85.333333 279.893333c-3.413333-3.413333-3.413333-6.826667-3.413333-10.24C40.96 341.333333 17.066667 423.253333 17.066667 512c0 109.226667 34.133333 208.213333 95.573333 290.133333h232.106667z m549.546666-354.986666l64.853334-44.373334c6.826667-6.826667 17.066667-3.413333 23.893333 3.413334 6.826667 6.826667 3.413333 17.066667-3.413333 23.893333l-64.853334 44.373333c-3.413333 3.413333-6.826667 3.413333-10.24 3.413334-6.826667 0-10.24-3.413333-13.653333-6.826667-6.826667-10.24-3.413333-20.48 3.413333-23.893333z m6.826667 98.986666l64.853333-17.066666c10.24-3.413333 17.066667 3.413333 20.48 13.653333 3.413333 10.24-3.413333 17.066667-13.653333 20.48l-64.853333 17.066667h-3.413334c-6.826667 0-13.653333-3.413333-17.066666-13.653334-3.413333-6.826667 3.413333-17.066667 13.653333-20.48z m-133.12-314.026666l34.133333-78.506667c3.413333-10.24 13.653333-13.653333 23.893334-10.24 10.24 3.413333 13.653333 13.653333 10.24 23.893333l-34.133334 78.506667c-3.413333 6.826667-10.24 10.24-17.066666 10.24h-6.826667c-10.24-6.826667-13.653333-17.066667-10.24-23.893333z m-136.533333-68.266667L675.84 68.266667c3.413333-10.24 13.653333-13.653333 23.893333-6.826667s13.653333 13.653333 6.826667 23.893333l-44.373333 95.573334c-3.413333 6.826667-10.24 10.24-17.066667 10.24h-6.826667c-6.826667-10.24-10.24-20.48-6.826666-27.306667z m-307.2-102.4c10.24-3.413333 17.066667 0 23.893333 6.826667l44.373333 95.573333c3.413333 10.24 0 17.066667-6.826666 23.893333h-6.826667c-6.826667 0-13.653333-3.413333-17.066667-10.24L317.44 85.333333c-3.413333-10.24 0-20.48 6.826667-23.893333zM197.973333 146.773333c10.24-3.413333 17.066667 0 23.893334 10.24l34.133333 78.506667c3.413333 10.24 0 17.066667-10.24 23.893333H238.933333c-6.826667 0-13.653333-3.413333-17.066666-10.24L187.733333 170.666667c-3.413333-10.24 0-20.48 10.24-23.893334zM40.96 409.6c6.826667-6.826667 17.066667-10.24 23.893333-3.413333l64.853334 44.373333c6.826667 6.826667 10.24 17.066667 3.413333 23.893333-3.413333 0-6.826667 3.413333-13.653333 3.413334-3.413333 0-6.826667 0-10.24-3.413334l-64.853334-44.373333c-6.826667-3.413333-6.826667-13.653333-3.413333-20.48z m-3.413333 133.12c3.413333-10.24 10.24-13.653333 20.48-13.653333l64.853333 17.066666c10.24 3.413333 13.653333 10.24 13.653333 20.48-3.413333 10.24-10.24 13.653333-17.066666 13.653334h-3.413334l-64.853333-17.066667c-10.24-3.413333-13.653333-13.653333-13.653333-20.48zM139.946667 836.266667c92.16 105.813333 225.28 170.666667 372.053333 170.666666s283.306667-64.853333 372.053333-170.666666H139.946667z" fill="" /></svg>